M48
; DRILL file KiCad 10.0.5 date 2026-08-19T03:00:21
; FORMAT={-:-/ absolute / metric / decimal}
; #@! TF.CreationDate,2026-08-19T03:00:21+01:00
; #@! TF.GenerationSoftware,Kicad,Pcbnew,10.0.5
; #@! TF.FileFunction,Plated,1,2,PTH
FMAT,2
METRIC
; #@! TA.AperFunction,Plated,PTH,ViaDrill
T1C0.300
; #@! TA.AperFunction,Plated,PTH,ViaDrill
T2C0.400
; #@! TA.AperFunction,Plated,PTH,ComponentDrill
T3C1.000
; #@! TA.AperFunction,Plated,PTH,ComponentDrill
T4C1.500
; #@! TA.AperFunction,Plated,PTH,ComponentDrill
T5C1.540
; #@! TA.AperFunction,Plated,PTH,ComponentDrill
T6C2.000
%
G90
G05
T1
X109.6Y-114.6
X111.6Y-98.4
X113.0Y-88.8
X115.2Y-95.0
X115.8Y-67.6
X117.2Y-98.4
X117.2Y-99.4
X117.4Y-90.0
X117.8Y-100.2
X118.2Y-95.0
X119.6Y-77.8
X120.0Y-100.0
X120.0Y-101.0
X120.4Y-116.8
X121.4Y-85.2
X121.8Y-78.6
X123.2Y-99.4
X125.8Y-87.8
X125.8Y-98.4
X126.6Y-86.8
X128.4Y-79.0
X128.8Y-80.2
X128.8Y-81.4
X129.0Y-101.6
X130.0Y-85.8
X130.6Y-82.8
X130.6Y-86.6
X131.2Y-89.6
X131.4Y-87.2
X131.6Y-82.8
X131.6Y-88.6
X132.4Y-76.2
X132.6Y-82.8
X133.0Y-77.0
X133.2Y-79.4
X134.6Y-85.4
X134.8Y-86.6
X138.4Y-80.2
X139.2Y-88.8
X140.4Y-111.4
X140.8Y-90.6
X140.8Y-101.2
X141.4Y-82.6
X141.8Y-66.6
X142.2Y-79.6
X144.2Y-114.0
X159.8Y-88.2
X161.8Y-90.4
X162.6Y-68.6
X162.8Y-81.0
X164.2Y-105.0
X165.0Y-81.2
X166.2Y-108.0
X166.2Y-110.2
X166.6Y-104.6
X166.8Y-106.6
X167.0Y-72.8
X167.0Y-75.4
X167.2Y-70.4
X168.2Y-65.4
X169.0Y-70.4
X169.2Y-72.8
X169.2Y-75.4
X169.2Y-107.4
X171.6Y-81.6
X179.4Y-111.2
X179.6Y-88.8
X182.6Y-103.0
T2
X106.0Y-106.4
X107.0Y-98.8
X118.4Y-74.4
X133.6Y-92.0
X148.2Y-97.0
X150.2Y-98.6
X153.6Y-102.2
X156.0Y-102.6
X156.6Y-105.2
X162.4Y-98.4
X163.2Y-87.8
X163.2Y-94.2
X164.4Y-113.6
X169.2Y-113.6
X199.0Y-102.2
X202.2Y-102.2
T3
X106.12Y-81.4
X106.12Y-96.64
X107.55Y-102.475
X108.66Y-81.4
X108.66Y-96.64
X110.09Y-102.475
X111.2Y-81.4
X111.2Y-96.64
X112.63Y-102.475
X113.74Y-81.4
X113.74Y-96.64
X115.17Y-102.475
X116.28Y-81.4
X116.28Y-96.64
X117.71Y-102.475
X118.602Y-72.05
X118.82Y-81.4
X118.82Y-96.64
X120.25Y-102.475
X121.142Y-72.05
X121.36Y-81.4
X121.36Y-96.64
X123.682Y-72.05
X123.9Y-81.4
X123.9Y-96.64
X126.222Y-72.05
X126.44Y-81.4
X126.44Y-96.64
X145.035Y-78.585
X147.575Y-78.585
X150.115Y-78.585
X152.655Y-78.585
X155.195Y-78.585
X157.735Y-78.585
X160.275Y-78.585
X162.815Y-78.585
X165.355Y-78.585
X171.705Y-65.25
X171.705Y-67.79
X171.705Y-70.33
X171.705Y-72.87
X171.705Y-75.41
X171.705Y-77.95
X175.5Y-79.1
X175.5Y-81.64
X175.5Y-84.18
X175.5Y-86.72
X175.5Y-89.26
X175.5Y-91.8
X175.5Y-94.34
X175.5Y-96.88
X175.5Y-99.42
X175.5Y-101.96
X175.5Y-104.5
X184.875Y-87.5
X184.875Y-90.0
X184.875Y-92.5
X184.92Y-116.6
X187.46Y-116.6
X190.0Y-116.6
X199.375Y-87.5
X199.375Y-92.5
T5
X178.713Y-65.013
X178.713Y-68.412
X178.713Y-76.013
X178.713Y-79.513
X201.612Y-65.312
X201.612Y-79.513
T6
X129.6Y-106.4
X129.6Y-113.2
X160.1Y-106.4
X160.1Y-113.2
T4
G00X191.725Y-84.4
M15
G01X193.025Y-84.4
M16
G05
G00X191.725Y-95.6
M15
G01X193.025Y-95.6
M16
G05
M30
