%TF.GenerationSoftware,KiCad,Pcbnew,10.0.5*%
%TF.CreationDate,2026-08-19T03:00:14+01:00*%
%TF.ProjectId,MP3 Player,4d503320-506c-4617-9965-722e6b696361,rev?*%
%TF.SameCoordinates,Original*%
%TF.FileFunction,Legend,Bot*%
%TF.FilePolarity,Positive*%
%FSLAX46Y46*%
G04 Gerber Fmt 4.6, Leading zero omitted, Abs format (unit mm)*
G04 Created by KiCad (PCBNEW 10.0.5) date 2026-08-19 03:00:14*
%MOMM*%
%LPD*%
G01*
G04 APERTURE LIST*
%ADD10C,0.300000*%
%ADD11C,0.000000*%
G04 APERTURE END LIST*
D10*
X138553804Y-72130701D02*
X140172852Y-72130701D01*
X140172852Y-72130701D02*
X140363328Y-72035463D01*
X140363328Y-72035463D02*
X140458566Y-71940225D01*
X140458566Y-71940225D02*
X140553804Y-71749748D01*
X140553804Y-71749748D02*
X140553804Y-71464034D01*
X140553804Y-71464034D02*
X140458566Y-71273558D01*
X139791900Y-72130701D02*
X139887138Y-71940225D01*
X139887138Y-71940225D02*
X139887138Y-71559272D01*
X139887138Y-71559272D02*
X139791900Y-71368796D01*
X139791900Y-71368796D02*
X139696661Y-71273558D01*
X139696661Y-71273558D02*
X139506185Y-71178320D01*
X139506185Y-71178320D02*
X138934757Y-71178320D01*
X138934757Y-71178320D02*
X138744280Y-71273558D01*
X138744280Y-71273558D02*
X138649042Y-71368796D01*
X138649042Y-71368796D02*
X138553804Y-71559272D01*
X138553804Y-71559272D02*
X138553804Y-71940225D01*
X138553804Y-71940225D02*
X138649042Y-72130701D01*
X139887138Y-73083082D02*
X138553804Y-73083082D01*
X137887138Y-73083082D02*
X137982376Y-72987844D01*
X137982376Y-72987844D02*
X138077614Y-73083082D01*
X138077614Y-73083082D02*
X137982376Y-73178320D01*
X137982376Y-73178320D02*
X137887138Y-73083082D01*
X137887138Y-73083082D02*
X138077614Y-73083082D01*
X138553804Y-73749749D02*
X138553804Y-74511653D01*
X137887138Y-74035463D02*
X139601423Y-74035463D01*
X139601423Y-74035463D02*
X139791900Y-74130701D01*
X139791900Y-74130701D02*
X139887138Y-74321177D01*
X139887138Y-74321177D02*
X139887138Y-74511653D01*
X139887138Y-75178320D02*
X137887138Y-75178320D01*
X139887138Y-76035463D02*
X138839519Y-76035463D01*
X138839519Y-76035463D02*
X138649042Y-75940225D01*
X138649042Y-75940225D02*
X138553804Y-75749749D01*
X138553804Y-75749749D02*
X138553804Y-75464034D01*
X138553804Y-75464034D02*
X138649042Y-75273558D01*
X138649042Y-75273558D02*
X138744280Y-75178320D01*
X138553804Y-77844987D02*
X139887138Y-77844987D01*
X138553804Y-76987844D02*
X139601423Y-76987844D01*
X139601423Y-76987844D02*
X139791900Y-77083082D01*
X139791900Y-77083082D02*
X139887138Y-77273558D01*
X139887138Y-77273558D02*
X139887138Y-77559273D01*
X139887138Y-77559273D02*
X139791900Y-77749749D01*
X139791900Y-77749749D02*
X139696661Y-77844987D01*
X139887138Y-78797368D02*
X137887138Y-78797368D01*
X138649042Y-78797368D02*
X138553804Y-78987844D01*
X138553804Y-78987844D02*
X138553804Y-79368797D01*
X138553804Y-79368797D02*
X138649042Y-79559273D01*
X138649042Y-79559273D02*
X138744280Y-79654511D01*
X138744280Y-79654511D02*
X138934757Y-79749749D01*
X138934757Y-79749749D02*
X139506185Y-79749749D01*
X139506185Y-79749749D02*
X139696661Y-79654511D01*
X139696661Y-79654511D02*
X139791900Y-79559273D01*
X139791900Y-79559273D02*
X139887138Y-79368797D01*
X139887138Y-79368797D02*
X139887138Y-78987844D01*
X139887138Y-78987844D02*
X139791900Y-78797368D01*
X139696661Y-80606892D02*
X139791900Y-80702130D01*
X139791900Y-80702130D02*
X139887138Y-80606892D01*
X139887138Y-80606892D02*
X139791900Y-80511654D01*
X139791900Y-80511654D02*
X139696661Y-80606892D01*
X139696661Y-80606892D02*
X139887138Y-80606892D01*
X139791900Y-82416416D02*
X139887138Y-82225940D01*
X139887138Y-82225940D02*
X139887138Y-81844987D01*
X139887138Y-81844987D02*
X139791900Y-81654511D01*
X139791900Y-81654511D02*
X139696661Y-81559273D01*
X139696661Y-81559273D02*
X139506185Y-81464035D01*
X139506185Y-81464035D02*
X138934757Y-81464035D01*
X138934757Y-81464035D02*
X138744280Y-81559273D01*
X138744280Y-81559273D02*
X138649042Y-81654511D01*
X138649042Y-81654511D02*
X138553804Y-81844987D01*
X138553804Y-81844987D02*
X138553804Y-82225940D01*
X138553804Y-82225940D02*
X138649042Y-82416416D01*
X139887138Y-83559273D02*
X139791900Y-83368797D01*
X139791900Y-83368797D02*
X139696661Y-83273559D01*
X139696661Y-83273559D02*
X139506185Y-83178321D01*
X139506185Y-83178321D02*
X138934757Y-83178321D01*
X138934757Y-83178321D02*
X138744280Y-83273559D01*
X138744280Y-83273559D02*
X138649042Y-83368797D01*
X138649042Y-83368797D02*
X138553804Y-83559273D01*
X138553804Y-83559273D02*
X138553804Y-83844988D01*
X138553804Y-83844988D02*
X138649042Y-84035464D01*
X138649042Y-84035464D02*
X138744280Y-84130702D01*
X138744280Y-84130702D02*
X138934757Y-84225940D01*
X138934757Y-84225940D02*
X139506185Y-84225940D01*
X139506185Y-84225940D02*
X139696661Y-84130702D01*
X139696661Y-84130702D02*
X139791900Y-84035464D01*
X139791900Y-84035464D02*
X139887138Y-83844988D01*
X139887138Y-83844988D02*
X139887138Y-83559273D01*
X139887138Y-85083083D02*
X138553804Y-85083083D01*
X138744280Y-85083083D02*
X138649042Y-85178321D01*
X138649042Y-85178321D02*
X138553804Y-85368797D01*
X138553804Y-85368797D02*
X138553804Y-85654512D01*
X138553804Y-85654512D02*
X138649042Y-85844988D01*
X138649042Y-85844988D02*
X138839519Y-85940226D01*
X138839519Y-85940226D02*
X139887138Y-85940226D01*
X138839519Y-85940226D02*
X138649042Y-86035464D01*
X138649042Y-86035464D02*
X138553804Y-86225940D01*
X138553804Y-86225940D02*
X138553804Y-86511654D01*
X138553804Y-86511654D02*
X138649042Y-86702131D01*
X138649042Y-86702131D02*
X138839519Y-86797369D01*
X138839519Y-86797369D02*
X139887138Y-86797369D01*
X137791900Y-89178321D02*
X140363328Y-87464036D01*
X138553804Y-89844988D02*
X139887138Y-89844988D01*
X138744280Y-89844988D02*
X138649042Y-89940226D01*
X138649042Y-89940226D02*
X138553804Y-90130702D01*
X138553804Y-90130702D02*
X138553804Y-90416417D01*
X138553804Y-90416417D02*
X138649042Y-90606893D01*
X138649042Y-90606893D02*
X138839519Y-90702131D01*
X138839519Y-90702131D02*
X139887138Y-90702131D01*
X139887138Y-92511655D02*
X138839519Y-92511655D01*
X138839519Y-92511655D02*
X138649042Y-92416417D01*
X138649042Y-92416417D02*
X138553804Y-92225941D01*
X138553804Y-92225941D02*
X138553804Y-91844988D01*
X138553804Y-91844988D02*
X138649042Y-91654512D01*
X139791900Y-92511655D02*
X139887138Y-92321179D01*
X139887138Y-92321179D02*
X139887138Y-91844988D01*
X139887138Y-91844988D02*
X139791900Y-91654512D01*
X139791900Y-91654512D02*
X139601423Y-91559274D01*
X139601423Y-91559274D02*
X139410947Y-91559274D01*
X139410947Y-91559274D02*
X139220471Y-91654512D01*
X139220471Y-91654512D02*
X139125233Y-91844988D01*
X139125233Y-91844988D02*
X139125233Y-92321179D01*
X139125233Y-92321179D02*
X139029995Y-92511655D01*
X138553804Y-93178322D02*
X138553804Y-93940226D01*
X137887138Y-93464036D02*
X139601423Y-93464036D01*
X139601423Y-93464036D02*
X139791900Y-93559274D01*
X139791900Y-93559274D02*
X139887138Y-93749750D01*
X139887138Y-93749750D02*
X139887138Y-93940226D01*
X139887138Y-94606893D02*
X137887138Y-94606893D01*
X139887138Y-95464036D02*
X138839519Y-95464036D01*
X138839519Y-95464036D02*
X138649042Y-95368798D01*
X138649042Y-95368798D02*
X138553804Y-95178322D01*
X138553804Y-95178322D02*
X138553804Y-94892607D01*
X138553804Y-94892607D02*
X138649042Y-94702131D01*
X138649042Y-94702131D02*
X138744280Y-94606893D01*
X139887138Y-97273560D02*
X138839519Y-97273560D01*
X138839519Y-97273560D02*
X138649042Y-97178322D01*
X138649042Y-97178322D02*
X138553804Y-96987846D01*
X138553804Y-96987846D02*
X138553804Y-96606893D01*
X138553804Y-96606893D02*
X138649042Y-96416417D01*
X139791900Y-97273560D02*
X139887138Y-97083084D01*
X139887138Y-97083084D02*
X139887138Y-96606893D01*
X139887138Y-96606893D02*
X139791900Y-96416417D01*
X139791900Y-96416417D02*
X139601423Y-96321179D01*
X139601423Y-96321179D02*
X139410947Y-96321179D01*
X139410947Y-96321179D02*
X139220471Y-96416417D01*
X139220471Y-96416417D02*
X139125233Y-96606893D01*
X139125233Y-96606893D02*
X139125233Y-97083084D01*
X139125233Y-97083084D02*
X139029995Y-97273560D01*
X138553804Y-98225941D02*
X139887138Y-98225941D01*
X138744280Y-98225941D02*
X138649042Y-98321179D01*
X138649042Y-98321179D02*
X138553804Y-98511655D01*
X138553804Y-98511655D02*
X138553804Y-98797370D01*
X138553804Y-98797370D02*
X138649042Y-98987846D01*
X138649042Y-98987846D02*
X138839519Y-99083084D01*
X138839519Y-99083084D02*
X139887138Y-99083084D01*
X139791900Y-99940227D02*
X139887138Y-100130703D01*
X139887138Y-100130703D02*
X139887138Y-100511655D01*
X139887138Y-100511655D02*
X139791900Y-100702132D01*
X139791900Y-100702132D02*
X139601423Y-100797370D01*
X139601423Y-100797370D02*
X139506185Y-100797370D01*
X139506185Y-100797370D02*
X139315709Y-100702132D01*
X139315709Y-100702132D02*
X139220471Y-100511655D01*
X139220471Y-100511655D02*
X139220471Y-100225941D01*
X139220471Y-100225941D02*
X139125233Y-100035465D01*
X139125233Y-100035465D02*
X138934757Y-99940227D01*
X138934757Y-99940227D02*
X138839519Y-99940227D01*
X138839519Y-99940227D02*
X138649042Y-100035465D01*
X138649042Y-100035465D02*
X138553804Y-100225941D01*
X138553804Y-100225941D02*
X138553804Y-100511655D01*
X138553804Y-100511655D02*
X138649042Y-100702132D01*
X139125233Y-101654513D02*
X139125233Y-103178323D01*
X139791900Y-104035465D02*
X139887138Y-104225941D01*
X139887138Y-104225941D02*
X139887138Y-104606893D01*
X139887138Y-104606893D02*
X139791900Y-104797370D01*
X139791900Y-104797370D02*
X139601423Y-104892608D01*
X139601423Y-104892608D02*
X139506185Y-104892608D01*
X139506185Y-104892608D02*
X139315709Y-104797370D01*
X139315709Y-104797370D02*
X139220471Y-104606893D01*
X139220471Y-104606893D02*
X139220471Y-104321179D01*
X139220471Y-104321179D02*
X139125233Y-104130703D01*
X139125233Y-104130703D02*
X138934757Y-104035465D01*
X138934757Y-104035465D02*
X138839519Y-104035465D01*
X138839519Y-104035465D02*
X138649042Y-104130703D01*
X138649042Y-104130703D02*
X138553804Y-104321179D01*
X138553804Y-104321179D02*
X138553804Y-104606893D01*
X138553804Y-104606893D02*
X138649042Y-104797370D01*
X138553804Y-105559275D02*
X139887138Y-106035465D01*
X138553804Y-106511656D02*
X139887138Y-106035465D01*
X139887138Y-106035465D02*
X140363328Y-105844989D01*
X140363328Y-105844989D02*
X140458566Y-105749751D01*
X140458566Y-105749751D02*
X140553804Y-105559275D01*
X139791900Y-107178323D02*
X139887138Y-107368799D01*
X139887138Y-107368799D02*
X139887138Y-107749751D01*
X139887138Y-107749751D02*
X139791900Y-107940228D01*
X139791900Y-107940228D02*
X139601423Y-108035466D01*
X139601423Y-108035466D02*
X139506185Y-108035466D01*
X139506185Y-108035466D02*
X139315709Y-107940228D01*
X139315709Y-107940228D02*
X139220471Y-107749751D01*
X139220471Y-107749751D02*
X139220471Y-107464037D01*
X139220471Y-107464037D02*
X139125233Y-107273561D01*
X139125233Y-107273561D02*
X138934757Y-107178323D01*
X138934757Y-107178323D02*
X138839519Y-107178323D01*
X138839519Y-107178323D02*
X138649042Y-107273561D01*
X138649042Y-107273561D02*
X138553804Y-107464037D01*
X138553804Y-107464037D02*
X138553804Y-107749751D01*
X138553804Y-107749751D02*
X138649042Y-107940228D01*
X138553804Y-108606895D02*
X138553804Y-109368799D01*
X137887138Y-108892609D02*
X139601423Y-108892609D01*
X139601423Y-108892609D02*
X139791900Y-108987847D01*
X139791900Y-108987847D02*
X139887138Y-109178323D01*
X139887138Y-109178323D02*
X139887138Y-109368799D01*
X139791900Y-110797371D02*
X139887138Y-110606895D01*
X139887138Y-110606895D02*
X139887138Y-110225942D01*
X139887138Y-110225942D02*
X139791900Y-110035466D01*
X139791900Y-110035466D02*
X139601423Y-109940228D01*
X139601423Y-109940228D02*
X138839519Y-109940228D01*
X138839519Y-109940228D02*
X138649042Y-110035466D01*
X138649042Y-110035466D02*
X138553804Y-110225942D01*
X138553804Y-110225942D02*
X138553804Y-110606895D01*
X138553804Y-110606895D02*
X138649042Y-110797371D01*
X138649042Y-110797371D02*
X138839519Y-110892609D01*
X138839519Y-110892609D02*
X139029995Y-110892609D01*
X139029995Y-110892609D02*
X139220471Y-109940228D01*
X139887138Y-111749752D02*
X138553804Y-111749752D01*
X138744280Y-111749752D02*
X138649042Y-111844990D01*
X138649042Y-111844990D02*
X138553804Y-112035466D01*
X138553804Y-112035466D02*
X138553804Y-112321181D01*
X138553804Y-112321181D02*
X138649042Y-112511657D01*
X138649042Y-112511657D02*
X138839519Y-112606895D01*
X138839519Y-112606895D02*
X139887138Y-112606895D01*
X138839519Y-112606895D02*
X138649042Y-112702133D01*
X138649042Y-112702133D02*
X138553804Y-112892609D01*
X138553804Y-112892609D02*
X138553804Y-113178323D01*
X138553804Y-113178323D02*
X138649042Y-113368800D01*
X138649042Y-113368800D02*
X138839519Y-113464038D01*
X138839519Y-113464038D02*
X139887138Y-113464038D01*
X139791900Y-114321181D02*
X139887138Y-114511657D01*
X139887138Y-114511657D02*
X139887138Y-114892609D01*
X139887138Y-114892609D02*
X139791900Y-115083086D01*
X139791900Y-115083086D02*
X139601423Y-115178324D01*
X139601423Y-115178324D02*
X139506185Y-115178324D01*
X139506185Y-115178324D02*
X139315709Y-115083086D01*
X139315709Y-115083086D02*
X139220471Y-114892609D01*
X139220471Y-114892609D02*
X139220471Y-114606895D01*
X139220471Y-114606895D02*
X139125233Y-114416419D01*
X139125233Y-114416419D02*
X138934757Y-114321181D01*
X138934757Y-114321181D02*
X138839519Y-114321181D01*
X138839519Y-114321181D02*
X138649042Y-114416419D01*
X138649042Y-114416419D02*
X138553804Y-114606895D01*
X138553804Y-114606895D02*
X138553804Y-114892609D01*
X138553804Y-114892609D02*
X138649042Y-115083086D01*
D11*
%TO.C,G\u002A\u002A\u002A*%
G36*
X148101278Y-83146272D02*
G01*
X148268969Y-83198957D01*
X148293604Y-83213393D01*
X148370296Y-83285242D01*
X148486411Y-83419957D01*
X148627056Y-83599202D01*
X148777336Y-83804645D01*
X148799279Y-83835860D01*
X148982442Y-84092055D01*
X149189154Y-84372087D01*
X149391634Y-84638743D01*
X149534399Y-84820541D01*
X149668122Y-84982417D01*
X149837395Y-85180386D01*
X150030640Y-85401639D01*
X150236279Y-85633365D01*
X150442733Y-85862753D01*
X150638426Y-86076992D01*
X150811778Y-86263273D01*
X150951213Y-86408783D01*
X151045152Y-86500713D01*
X151074467Y-86524582D01*
X151131194Y-86507331D01*
X151228640Y-86429498D01*
X151346184Y-86307754D01*
X151528131Y-86118577D01*
X151770262Y-85893840D01*
X152051062Y-85651545D01*
X152349017Y-85409697D01*
X152642613Y-85186299D01*
X152838423Y-85049483D01*
X157470334Y-85049483D01*
X157520254Y-85142268D01*
X157633825Y-85275787D01*
X157805438Y-85458300D01*
X157917278Y-85576939D01*
X158462973Y-86160027D01*
X159065592Y-85559148D01*
X159668211Y-84958269D01*
X159386317Y-84918153D01*
X159233999Y-84905620D01*
X159010818Y-84898947D01*
X158743446Y-84898415D01*
X158458551Y-84904306D01*
X158371731Y-84907445D01*
X158019295Y-84920468D01*
X157758544Y-84932923D01*
X157583872Y-84953071D01*
X157489671Y-84989170D01*
X157470334Y-85049483D01*
X152838423Y-85049483D01*
X152907459Y-85001246D01*
X153663168Y-84560103D01*
X154488355Y-84185075D01*
X155379401Y-83877468D01*
X156332685Y-83638585D01*
X157038384Y-83512457D01*
X157421806Y-83466386D01*
X157868006Y-83432154D01*
X158351257Y-83410178D01*
X158845830Y-83400877D01*
X159325997Y-83404670D01*
X159766031Y-83421974D01*
X160140202Y-83453209D01*
X160203461Y-83460979D01*
X161149421Y-83622431D01*
X162023521Y-83849731D01*
X162826262Y-84143094D01*
X163558148Y-84502737D01*
X164219679Y-84928876D01*
X164811358Y-85421727D01*
X164852201Y-85460681D01*
X165340644Y-85997987D01*
X165751888Y-86593320D01*
X166082154Y-87240266D01*
X166327668Y-87932409D01*
X166345724Y-87997607D01*
X166377644Y-88117154D01*
X166403874Y-88224608D01*
X166425029Y-88330891D01*
X166441728Y-88446921D01*
X166454585Y-88583621D01*
X166464218Y-88751911D01*
X166471244Y-88962712D01*
X166476278Y-89226945D01*
X166479937Y-89555531D01*
X166482839Y-89959390D01*
X166485598Y-90449443D01*
X166485752Y-90477885D01*
X166487075Y-90921152D01*
X166486304Y-91342412D01*
X166483609Y-91729724D01*
X166479160Y-92071149D01*
X166473127Y-92354747D01*
X166465680Y-92568579D01*
X166456987Y-92700704D01*
X166453794Y-92724808D01*
X166282761Y-93431089D01*
X166026531Y-94093825D01*
X165688513Y-94710615D01*
X165272116Y-95279059D01*
X164931675Y-95637743D01*
X164780749Y-95796756D01*
X164217820Y-96261304D01*
X163586739Y-96670302D01*
X162890914Y-97021349D01*
X162133754Y-97312044D01*
X161412498Y-97513747D01*
X161318669Y-97539987D01*
X160449066Y-97702776D01*
X159528356Y-97798010D01*
X159228900Y-97813609D01*
X158969186Y-97813206D01*
X158203829Y-97812019D01*
X157203633Y-97725440D01*
X156233957Y-97555910D01*
X155528761Y-97366721D01*
X155300444Y-97305469D01*
X154408738Y-96976156D01*
X153564486Y-96570012D01*
X152944101Y-96192885D01*
X157319699Y-96192885D01*
X157479368Y-96227914D01*
X157627889Y-96249835D01*
X157849333Y-96269461D01*
X158118943Y-96285899D01*
X158411961Y-96298259D01*
X158703628Y-96305651D01*
X158969186Y-96307183D01*
X159183878Y-96301966D01*
X159295378Y-96293244D01*
X159582586Y-96257360D01*
X159002345Y-95675603D01*
X158422105Y-95093847D01*
X158385787Y-95130054D01*
X157870902Y-95643366D01*
X157319699Y-96192885D01*
X152944101Y-96192885D01*
X152773330Y-96089075D01*
X152040915Y-95535385D01*
X151687521Y-95210360D01*
X151469851Y-95010163D01*
X151318053Y-94864152D01*
X151188992Y-94752524D01*
X151098969Y-94688652D01*
X151067285Y-94679856D01*
X151007513Y-94733043D01*
X150895392Y-94847291D01*
X150742488Y-95009776D01*
X150560366Y-95207677D01*
X150360591Y-95428168D01*
X150154728Y-95658429D01*
X149954343Y-95885635D01*
X149771000Y-96096963D01*
X149616266Y-96279591D01*
X149534399Y-96379459D01*
X149356129Y-96607424D01*
X149150897Y-96879227D01*
X148946411Y-97157744D01*
X148798659Y-97365192D01*
X148647345Y-97573511D01*
X148502455Y-97758503D01*
X148379158Y-97901734D01*
X148292619Y-97984771D01*
X148283970Y-97990753D01*
X148113213Y-98055358D01*
X147897094Y-98079126D01*
X147826469Y-98073231D01*
X147679489Y-98060962D01*
X147522216Y-98009737D01*
X147388415Y-97915814D01*
X147220528Y-97762753D01*
X147038809Y-97572602D01*
X146863514Y-97367404D01*
X146714900Y-97169208D01*
X146638295Y-97047692D01*
X146473728Y-96693270D01*
X146343512Y-96289535D01*
X146262005Y-95882799D01*
X146252679Y-95803872D01*
X146220558Y-95490346D01*
X145848452Y-95739918D01*
X145428095Y-96031116D01*
X145033983Y-96325485D01*
X144627094Y-96652570D01*
X144475000Y-96779776D01*
X144257366Y-96961087D01*
X144094241Y-97087750D01*
X143970412Y-97167121D01*
X143966673Y-97169518D01*
X143855711Y-97216143D01*
X143742404Y-97237378D01*
X143607799Y-97242976D01*
X143574698Y-97243077D01*
X143404413Y-97235470D01*
X143285708Y-97201399D01*
X143172943Y-97123989D01*
X143114731Y-97073011D01*
X142873224Y-96791923D01*
X142684476Y-96438229D01*
X142552907Y-96024217D01*
X142482937Y-95562175D01*
X142472308Y-95286782D01*
X142473147Y-95276627D01*
X147758788Y-95276627D01*
X147760927Y-95513595D01*
X147772594Y-95723365D01*
X147793547Y-95883208D01*
X147823538Y-95970395D01*
X147826469Y-95973700D01*
X147873950Y-95955909D01*
X147969547Y-95866957D01*
X148104941Y-95715426D01*
X148254016Y-95532549D01*
X148480432Y-95255115D01*
X148754547Y-94934454D01*
X149055690Y-94593556D01*
X149363188Y-94255409D01*
X149561911Y-94043654D01*
X152635657Y-94043654D01*
X152980145Y-94336731D01*
X153573638Y-94789063D01*
X154232860Y-95196891D01*
X154929916Y-95543612D01*
X155191784Y-95653069D01*
X155528761Y-95786611D01*
X156421683Y-94894667D01*
X157297853Y-94019458D01*
X159495728Y-94019458D01*
X160454113Y-94977843D01*
X161412498Y-95936228D01*
X161748268Y-95826347D01*
X162354177Y-95591085D01*
X162919972Y-95298141D01*
X163428565Y-94957821D01*
X163862870Y-94580433D01*
X163932159Y-94509020D01*
X164071428Y-94357897D01*
X164180948Y-94232412D01*
X164246052Y-94149741D01*
X164257692Y-94127853D01*
X164224337Y-94086111D01*
X164129510Y-93983628D01*
X163981069Y-93828492D01*
X163786871Y-93628789D01*
X163554774Y-93392607D01*
X163292634Y-93128033D01*
X163048379Y-92883180D01*
X161839067Y-91674593D01*
X161815149Y-91698527D01*
X160667398Y-92847026D01*
X159495728Y-94019458D01*
X157297853Y-94019458D01*
X157314606Y-94002723D01*
X156182399Y-92843841D01*
X155853691Y-92509158D01*
X155586195Y-92241009D01*
X155374557Y-92034427D01*
X155213421Y-91884444D01*
X155097432Y-91786092D01*
X155046004Y-91751206D01*
X155021235Y-91734404D01*
X154979474Y-91724411D01*
X154976923Y-91725549D01*
X154925779Y-91768960D01*
X154814636Y-91873310D01*
X154652203Y-92030092D01*
X154447191Y-92230797D01*
X154208308Y-92466916D01*
X153944265Y-92729943D01*
X153769655Y-92904896D01*
X152635657Y-94043654D01*
X149561911Y-94043654D01*
X149656369Y-93943002D01*
X149914560Y-93679325D01*
X149965490Y-93629285D01*
X150092296Y-93497429D01*
X150182139Y-93387706D01*
X150219385Y-93319718D01*
X150218759Y-93311785D01*
X150191496Y-93247251D01*
X150136383Y-93115193D01*
X150062903Y-92938366D01*
X150019390Y-92833400D01*
X149925545Y-92581588D01*
X149830891Y-92285870D01*
X149751780Y-91998515D01*
X149731880Y-91914469D01*
X149631951Y-91468896D01*
X149621939Y-91424254D01*
X149427814Y-91634916D01*
X149001560Y-92148675D01*
X148619027Y-92711743D01*
X148291218Y-93303729D01*
X148029132Y-93904245D01*
X147843771Y-94492898D01*
X147811995Y-94629808D01*
X147784078Y-94812005D01*
X147766424Y-95035187D01*
X147758788Y-95276627D01*
X142473147Y-95276627D01*
X142478160Y-95215962D01*
X143970412Y-95215962D01*
X144137225Y-95081975D01*
X144282247Y-94972875D01*
X144491773Y-94824931D01*
X144747089Y-94650474D01*
X145029483Y-94461834D01*
X145320242Y-94271341D01*
X145600652Y-94091325D01*
X145852001Y-93934118D01*
X146055575Y-93812049D01*
X146119842Y-93775597D01*
X146516238Y-93556386D01*
X146718200Y-93064611D01*
X146816183Y-92843093D01*
X146938984Y-92590767D01*
X147075524Y-92327845D01*
X147214721Y-92074538D01*
X147345494Y-91851060D01*
X147456763Y-91677622D01*
X147532189Y-91579831D01*
X147580280Y-91517927D01*
X147574203Y-91509640D01*
X147565110Y-91497241D01*
X147480673Y-91519124D01*
X147320963Y-91584930D01*
X147138478Y-91668459D01*
X146670883Y-91915950D01*
X146198115Y-92218296D01*
X145738302Y-92560543D01*
X145309572Y-92927735D01*
X144930051Y-93304918D01*
X144617868Y-93677136D01*
X144536494Y-93793296D01*
X144500410Y-93844806D01*
X144337119Y-94124140D01*
X144191786Y-94426341D01*
X144078072Y-94719577D01*
X144009643Y-94972015D01*
X144004976Y-94998983D01*
X143970412Y-95215962D01*
X142478160Y-95215962D01*
X142520559Y-94702895D01*
X142665532Y-94122345D01*
X142907556Y-93544136D01*
X143227550Y-92996279D01*
X143329953Y-92839205D01*
X143407306Y-92714771D01*
X143446726Y-92643905D01*
X143449231Y-92636137D01*
X143413164Y-92598827D01*
X143312016Y-92508756D01*
X143156367Y-92374963D01*
X142956795Y-92206488D01*
X142723881Y-92012370D01*
X142582211Y-91895323D01*
X142326556Y-91682141D01*
X142090894Y-91480724D01*
X141887749Y-91302169D01*
X141729651Y-91157572D01*
X141629124Y-91058031D01*
X141605288Y-91029914D01*
X141519440Y-90839784D01*
X141489442Y-90608848D01*
X141490426Y-90600000D01*
X143473654Y-90600000D01*
X143509456Y-90645451D01*
X143607767Y-90739732D01*
X143754941Y-90870482D01*
X143937331Y-91025341D01*
X144005074Y-91081396D01*
X144536494Y-91518293D01*
X144921999Y-91232458D01*
X145126197Y-91085034D01*
X145337562Y-90938927D01*
X145520363Y-90818643D01*
X145565802Y-90790434D01*
X151123199Y-90790434D01*
X151139024Y-91125978D01*
X151181596Y-91432313D01*
X151254997Y-91742786D01*
X151322801Y-91967692D01*
X151385211Y-92143866D01*
X151463682Y-92340189D01*
X151546534Y-92530139D01*
X151622088Y-92687196D01*
X151678663Y-92784841D01*
X151687521Y-92795843D01*
X151723440Y-92766243D01*
X151818674Y-92677593D01*
X151963231Y-92539693D01*
X152147117Y-92362344D01*
X152360342Y-92155347D01*
X152592913Y-91928503D01*
X152834838Y-91691611D01*
X153076125Y-91454473D01*
X153306782Y-91226890D01*
X153516818Y-91018661D01*
X153696239Y-90839587D01*
X153835054Y-90699470D01*
X153923271Y-90608109D01*
X153931026Y-90599061D01*
X156126685Y-90599061D01*
X157249208Y-91734422D01*
X157519950Y-92008518D01*
X157768048Y-92260188D01*
X157985315Y-92481085D01*
X158163564Y-92662866D01*
X158294606Y-92797187D01*
X158370254Y-92875702D01*
X158385787Y-92892762D01*
X158422306Y-92865013D01*
X158519650Y-92775741D01*
X158669787Y-92632723D01*
X158864685Y-92443735D01*
X159096311Y-92216554D01*
X159356633Y-91958954D01*
X159570306Y-91746041D01*
X160717094Y-90600000D01*
X162915317Y-90600000D01*
X163913958Y-91599534D01*
X164169168Y-91853707D01*
X164401595Y-92082766D01*
X164602480Y-92278273D01*
X164763067Y-92431792D01*
X164874597Y-92534886D01*
X164928311Y-92579115D01*
X164931675Y-92579991D01*
X164950936Y-92512947D01*
X164967839Y-92361450D01*
X164982302Y-92138711D01*
X164994244Y-91857943D01*
X165003586Y-91532359D01*
X165010246Y-91175169D01*
X165014143Y-90799588D01*
X165015197Y-90418826D01*
X165013326Y-90046097D01*
X165008450Y-89694612D01*
X165000488Y-89377583D01*
X164989359Y-89108224D01*
X164974983Y-88899745D01*
X164957278Y-88765360D01*
X164955075Y-88755464D01*
X164917115Y-88596120D01*
X163916216Y-89598060D01*
X162915317Y-90600000D01*
X160717094Y-90600000D01*
X160740769Y-90576340D01*
X159608396Y-89443198D01*
X158476023Y-88310056D01*
X158462973Y-88321122D01*
X158252916Y-88499243D01*
X158158731Y-88584511D01*
X158007573Y-88727911D01*
X157811116Y-88918069D01*
X157581034Y-89143611D01*
X157329002Y-89393161D01*
X157078246Y-89643746D01*
X156126685Y-90599061D01*
X153931026Y-90599061D01*
X153951154Y-90575577D01*
X153917954Y-90542209D01*
X153823775Y-90447921D01*
X153676746Y-90300843D01*
X153484995Y-90109103D01*
X153256654Y-89880833D01*
X152999849Y-89624160D01*
X152832123Y-89456544D01*
X151713093Y-88338307D01*
X151567863Y-88626557D01*
X151374733Y-89061785D01*
X151242516Y-89491287D01*
X151162893Y-89948611D01*
X151130042Y-90392331D01*
X151123199Y-90790434D01*
X145565802Y-90790434D01*
X145573713Y-90785523D01*
X145711054Y-90698885D01*
X145807187Y-90631507D01*
X145839921Y-90600000D01*
X145801500Y-90564149D01*
X145701215Y-90494640D01*
X145573713Y-90414477D01*
X145410587Y-90309996D01*
X145205646Y-90170606D01*
X144994621Y-90020812D01*
X144921999Y-89967542D01*
X144536494Y-89681707D01*
X144005074Y-90118604D01*
X143813802Y-90278852D01*
X143653100Y-90419203D01*
X143536611Y-90527296D01*
X143477982Y-90590769D01*
X143473654Y-90600000D01*
X141490426Y-90600000D01*
X141515292Y-90376450D01*
X141596992Y-90181937D01*
X141605288Y-90170087D01*
X141674346Y-90095622D01*
X141806878Y-89970872D01*
X141990358Y-89806936D01*
X142212259Y-89614908D01*
X142460054Y-89405887D01*
X142582211Y-89304677D01*
X142829229Y-89100109D01*
X143048854Y-88916100D01*
X143230507Y-88761689D01*
X143363609Y-88645917D01*
X143437579Y-88577821D01*
X143449231Y-88563864D01*
X143423999Y-88513581D01*
X143356890Y-88403324D01*
X143260788Y-88254019D01*
X143227550Y-88203721D01*
X142893054Y-87626811D01*
X142655922Y-87048508D01*
X142515823Y-86467814D01*
X142477865Y-85984039D01*
X143970412Y-85984039D01*
X144004976Y-86201017D01*
X144066817Y-86446156D01*
X144175642Y-86736051D01*
X144317787Y-87038870D01*
X144479588Y-87322782D01*
X144500410Y-87355194D01*
X144684221Y-87602249D01*
X144930434Y-87882765D01*
X145219139Y-88177586D01*
X145530427Y-88467553D01*
X145844390Y-88733511D01*
X146141116Y-88956302D01*
X146218669Y-89008515D01*
X146415648Y-89131470D01*
X146641180Y-89263157D01*
X146877165Y-89394067D01*
X147105504Y-89514689D01*
X147308097Y-89615513D01*
X147466844Y-89687028D01*
X147563644Y-89719725D01*
X147574203Y-89720769D01*
X147568310Y-89686747D01*
X147515368Y-89601406D01*
X147486752Y-89562019D01*
X147410528Y-89450227D01*
X147304143Y-89280754D01*
X147184780Y-89081375D01*
X147119324Y-88968152D01*
X146984636Y-88716362D01*
X146844606Y-88429425D01*
X146723911Y-88158556D01*
X146694607Y-88086683D01*
X146517944Y-87640331D01*
X146045991Y-87377184D01*
X145829551Y-87250699D01*
X145563135Y-87086156D01*
X145267474Y-86897237D01*
X144963298Y-86697624D01*
X144671336Y-86500999D01*
X144412318Y-86321044D01*
X144206975Y-86171442D01*
X144137225Y-86117365D01*
X143970412Y-85984039D01*
X142477865Y-85984039D01*
X142472308Y-85913218D01*
X142479926Y-85788654D01*
X147757892Y-85788654D01*
X147781311Y-86329615D01*
X147894965Y-86896711D01*
X148096708Y-87484306D01*
X148384392Y-88086764D01*
X148755870Y-88698449D01*
X148995239Y-89036923D01*
X149143276Y-89230125D01*
X149289919Y-89411181D01*
X149413785Y-89554146D01*
X149467810Y-89610396D01*
X149631951Y-89768676D01*
X149719050Y-89337784D01*
X149777722Y-89100348D01*
X149863364Y-88818465D01*
X149961982Y-88536374D01*
X150016352Y-88397965D01*
X150100693Y-88193471D01*
X150170035Y-88024780D01*
X150216637Y-87910768D01*
X150232701Y-87870611D01*
X150202441Y-87831357D01*
X150114677Y-87733796D01*
X149980174Y-87589496D01*
X149809699Y-87410027D01*
X149640481Y-87234260D01*
X149546240Y-87133428D01*
X152673750Y-87133428D01*
X153859877Y-88331125D01*
X155046004Y-89528823D01*
X156208304Y-88367280D01*
X157346370Y-87229954D01*
X159544640Y-87229954D01*
X160679894Y-88365209D01*
X161815149Y-89500464D01*
X163033436Y-88282908D01*
X164251723Y-87065352D01*
X164156812Y-86932061D01*
X164078231Y-86838944D01*
X163949537Y-86704251D01*
X163793501Y-86551451D01*
X163726995Y-86489097D01*
X163380733Y-86206378D01*
X162972138Y-85933715D01*
X162535923Y-85692374D01*
X162137863Y-85515444D01*
X161955417Y-85443379D01*
X161809461Y-85388614D01*
X161688247Y-85356582D01*
X161580027Y-85352715D01*
X161473050Y-85382445D01*
X161355570Y-85451205D01*
X161215837Y-85564427D01*
X161042103Y-85727542D01*
X160822618Y-85945984D01*
X160545636Y-86225184D01*
X160496839Y-86274210D01*
X159544640Y-87229954D01*
X157346370Y-87229954D01*
X157370603Y-87205737D01*
X156473051Y-86308185D01*
X155575498Y-85410632D01*
X155386115Y-85471635D01*
X155043692Y-85602504D01*
X154653777Y-85785636D01*
X154240594Y-86006961D01*
X153828372Y-86252409D01*
X153441335Y-86507910D01*
X153103712Y-86759395D01*
X152958317Y-86881606D01*
X152673750Y-87133428D01*
X149546240Y-87133428D01*
X149027830Y-86578763D01*
X148471389Y-85936887D01*
X148088617Y-85459911D01*
X147974669Y-85321507D01*
X147892132Y-85251246D01*
X147835139Y-85254959D01*
X147797826Y-85338477D01*
X147774326Y-85507630D01*
X147758774Y-85768247D01*
X147757892Y-85788654D01*
X142479926Y-85788654D01*
X142498812Y-85479846D01*
X142574526Y-85083346D01*
X142693750Y-84732086D01*
X142850786Y-84434429D01*
X143039933Y-84198741D01*
X143255492Y-84033389D01*
X143491765Y-83946737D01*
X143743052Y-83947152D01*
X143802641Y-83960514D01*
X143929061Y-84017703D01*
X144101857Y-84128138D01*
X144297829Y-84276487D01*
X144364372Y-84331778D01*
X144995083Y-84842662D01*
X145639043Y-85316385D01*
X145848452Y-85459820D01*
X146220558Y-85709654D01*
X146253921Y-85384007D01*
X146307713Y-85069949D01*
X146401675Y-84726443D01*
X146522390Y-84395478D01*
X146656438Y-84119046D01*
X146660229Y-84112540D01*
X146770026Y-83950957D01*
X146920167Y-83763672D01*
X147090581Y-83572329D01*
X147261194Y-83398573D01*
X147411936Y-83264047D01*
X147509611Y-83196628D01*
X147680232Y-83144223D01*
X147891243Y-83127732D01*
X148101278Y-83146272D01*
G37*
%TD*%
M02*
