%TF.GenerationSoftware,KiCad,Pcbnew,10.0.5*%
%TF.CreationDate,2026-08-19T03:00:14+01:00*%
%TF.ProjectId,MP3 Player,4d503320-506c-4617-9965-722e6b696361,rev?*%
%TF.SameCoordinates,Original*%
%TF.FileFunction,Soldermask,Top*%
%TF.FilePolarity,Negative*%
%FSLAX46Y46*%
G04 Gerber Fmt 4.6, Leading zero omitted, Abs format (unit mm)*
G04 Created by KiCad (PCBNEW 10.0.5) date 2026-08-19 03:00:14*
%MOMM*%
%LPD*%
G01*
G04 APERTURE LIST*
G04 Aperture macros list*
%AMRoundRect*
0 Rectangle with rounded corners*
0 $1 Rounding radius*
0 $2 $3 $4 $5 $6 $7 $8 $9 X,Y pos of 4 corners*
0 Add a 4 corners polygon primitive as box body*
4,1,4,$2,$3,$4,$5,$6,$7,$8,$9,$2,$3,0*
0 Add four circle primitives for the rounded corners*
1,1,$1+$1,$2,$3*
1,1,$1+$1,$4,$5*
1,1,$1+$1,$6,$7*
1,1,$1+$1,$8,$9*
0 Add four rect primitives between the rounded corners*
20,1,$1+$1,$2,$3,$4,$5,0*
20,1,$1+$1,$4,$5,$6,$7,0*
20,1,$1+$1,$6,$7,$8,$9,0*
20,1,$1+$1,$8,$9,$2,$3,0*%
G04 Aperture macros list end*
%ADD10R,2.800000X2.800000*%
%ADD11R,1.800000X0.800000*%
%ADD12C,1.700000*%
%ADD13RoundRect,0.250000X0.250000X0.475000X-0.250000X0.475000X-0.250000X-0.475000X0.250000X-0.475000X0*%
%ADD14C,1.500000*%
%ADD15R,2.000000X2.000000*%
%ADD16C,2.000000*%
%ADD17R,3.200000X2.000000*%
%ADD18R,1.700000X1.700000*%
%ADD19RoundRect,0.250000X0.450000X-0.262500X0.450000X0.262500X-0.450000X0.262500X-0.450000X-0.262500X0*%
%ADD20RoundRect,0.250000X-0.262500X-0.450000X0.262500X-0.450000X0.262500X0.450000X-0.262500X0.450000X0*%
%ADD21RoundRect,0.750000X-1.750000X-0.750000X1.750000X-0.750000X1.750000X0.750000X-1.750000X0.750000X0*%
G04 APERTURE END LIST*
D10*
%TO.C,U8*%
X178712500Y-79512500D03*
X178712500Y-76012500D03*
X178712500Y-68412500D03*
X178712500Y-65012500D03*
X201612500Y-79512500D03*
X201612500Y-65312500D03*
%TD*%
D11*
%TO.C,U2*%
X165500000Y-85450000D03*
X165500000Y-86720000D03*
X165500000Y-87990000D03*
X165500000Y-89260000D03*
X165500000Y-90530000D03*
X165500000Y-91800000D03*
X165500000Y-93070000D03*
X165500000Y-94340000D03*
X165500000Y-95610000D03*
X165500000Y-96880000D03*
X165500000Y-98150000D03*
D12*
X175500000Y-79100000D03*
X175500000Y-81640000D03*
X175500000Y-84180000D03*
X175500000Y-86720000D03*
X175500000Y-89260000D03*
X175500000Y-91800000D03*
X175500000Y-94340000D03*
X175500000Y-96880000D03*
X175500000Y-99420000D03*
X175500000Y-101960000D03*
X175500000Y-104500000D03*
%TD*%
D13*
%TO.C,C2*%
X180250000Y-87600000D03*
X182150000Y-87600000D03*
%TD*%
D12*
%TO.C,U1*%
X106120000Y-96640000D03*
X108660000Y-96640000D03*
X111200000Y-96640000D03*
X113740000Y-96640000D03*
X116280000Y-96640000D03*
X118820000Y-96640000D03*
X121360000Y-96640000D03*
X123900000Y-96640000D03*
X126440000Y-96640000D03*
X106120000Y-81400000D03*
X126440000Y-81400000D03*
X123900000Y-81400000D03*
X121360000Y-81400000D03*
X118820000Y-81400000D03*
X116280000Y-81400000D03*
X113740000Y-81400000D03*
X111200000Y-81400000D03*
X108660000Y-81400000D03*
%TD*%
D14*
%TO.C,SW1*%
X199375000Y-87500000D03*
X199375000Y-92500000D03*
D15*
X184875000Y-87500000D03*
D16*
X184875000Y-92500000D03*
X184875000Y-90000000D03*
D17*
X192375000Y-84400000D03*
X192375000Y-95600000D03*
%TD*%
D12*
%TO.C,U6*%
X171705000Y-77950000D03*
X171705000Y-75410000D03*
X171705000Y-72870000D03*
X171705000Y-70330000D03*
X171705000Y-67790000D03*
X171705000Y-65250000D03*
X145035000Y-78585000D03*
X147575000Y-78585000D03*
X150115000Y-78585000D03*
X152655000Y-78585000D03*
X155195000Y-78585000D03*
X157735000Y-78585000D03*
X160275000Y-78585000D03*
X162815000Y-78585000D03*
X165355000Y-78585000D03*
%TD*%
%TO.C,U5*%
X107550000Y-102475000D03*
X110090000Y-102475000D03*
X112630000Y-102475000D03*
X115170000Y-102475000D03*
X117710000Y-102475000D03*
X120250000Y-102475000D03*
%TD*%
D13*
%TO.C,C1*%
X182550000Y-92400000D03*
X180650000Y-92400000D03*
%TD*%
D18*
%TO.C,U4*%
X184920000Y-116600000D03*
D12*
X187460000Y-116600000D03*
X190000000Y-116600000D03*
%TD*%
D19*
%TO.C,R1*%
X116200000Y-79025000D03*
X116200000Y-77200000D03*
%TD*%
D20*
%TO.C,R2*%
X111687500Y-78600000D03*
X113512500Y-78600000D03*
%TD*%
D12*
%TO.C,U3*%
X118602500Y-72050000D03*
X121142500Y-72050000D03*
X123682500Y-72050000D03*
X126222500Y-72050000D03*
%TD*%
D21*
%TO.C,U7*%
X129600000Y-113200000D03*
X129600000Y-106400000D03*
X160100000Y-106400000D03*
X160100000Y-113200000D03*
%TD*%
M02*
